<?xml version="1.0" encoding="utf-8"?>
<!-- Generator: Adobe Illustrator 24.2.1, SVG Export Plug-In . SVG Version: 6.00 Build 0)  -->
<svg version="1.1" id="Layer_1" xmlns="http://www.w3.org/2000/svg" xmlns:xlink="http://www.w3.org/1999/xlink" x="0px" y="0px"
	 viewBox="0 0 3110 1059" style="enable-background:new 0 0 3110 1059;" xml:space="preserve">
<style type="text/css">
	.st0{opacity:0.17;}
	.st1{fill:#41B6E6;}
	.st2{opacity:0.43;fill:#41B6E6;}
	.st3{opacity:0.52;fill:#41B6E6;}
	.st4{opacity:0.3;fill:#41B6E6;}
	.st5{opacity:0.31;fill:#FFFFFF;}
	.st6{opacity:0.42;fill:#FFFFFF;}
	.st7{fill:#ED2124;}
	.st8{opacity:7.000000e-02;fill:#FFFFFF;}
	.st9{opacity:0.19;fill:#FFFFFF;}
	.st10{opacity:0.29;}
	.st11{clip-path:url(#SVGID_2_);}
</style>
<g>
	<g class="st0">
		<g>
			<g>
				<path d="M439.5,1039.8c-143.4,0-374.9-23.4-374.9-58.2c0-29.6,162.3-37,248.7-23.7c49.8,7.7,87.6,14.7,126.2,14.7"/>
			</g>
			<g>
				<path d="M439.5,1039.8c143.4,0,374.9-23.4,374.9-58.2c0-29.6-162.3-37-248.7-23.7c-49.8,7.7-87.6,14.7-126.2,14.7"/>
			</g>
		</g>
	</g>
	<path class="st1" d="M796.1,706.7V528.4h-26.2v-43.7h-5.6v-14.6l-14.7-10.5H720h-29.7l-14.7,10.5v14.6H670v43.7h-26.2v70
		c-4.5-2.1-9-4.2-13.5-6.2l3.5-89l-4.6-31.6l4.6-31.2l-4.6-31.6l4.6-36.6l-4.6-37.9l4.6-50.1l-4.6-62.7H596l-5.7,62.7l4.7,50.1
		h-19.6l4.8,37.9l-4.8,36.6h-24.9l-3.4,31.6l3.4,31.2l-6.4,31.6h-23.6l-7.9,51.3c-3-0.6-6.1-1.2-9.1-1.7v-97.1h-15.1V269.1h-20.1
		V142.6h-17.2l-1.1-58.4H449l-1.2-44.8h-2.8l-1.2,44.8h-1.1l-1.1,58.4h-22.6l-1.2-62.2h-1l-1.3-59.3h-2.8l-1.3,59.3h-1l-1.2,62.2
		h-16.7v140.5v172.7h-29.6V555c-3.1,0.6-6.2,1.3-9.3,2L339.7,316h-16.5l-1-31h-1.1l-1.2-71.7H317l-1.2,71.7h-1.1l-1,31h-24.5
		l-0.9-28.2h-1.1l-1.2-71.7h-2.8l-1.2,71.7h-1.1l-0.9,28.2h-17.6l-15.8,276.6c-2.5,1.1-5,2.2-7.5,3.4V470.8l-68.8-66v66h-4.3h-4.3
		v-66l-68.8,66v224.3c-48.7,48.8-80.9,107.3-80.9,171.8c0,157.4,184.9,196.8,283.3,125.9c56.7-40.8,99.8-78.2,143.7-78.2
		s87,37.4,143.7,78.2c98.4,70.8,283.3,31.5,283.3-125.9C865.8,807.4,838.5,753.1,796.1,706.7z"/>
	<g>
		<path class="st2" d="M868.7,648.1c0,0,952.6-22.1,1050.1-29.2c147.5-10.9,288.4-25.5,353-32.6s247-25.6,324.5-133.5
			c51.9-72.2,65.4-207.9-12.1-303.4c-44.7-55-103.4-82.8-103.4-82.8s58.7,1,116.9,54.7c67.3,62.2,96.3,114,96.2,191.2
			C2694,418,2678.7,475,2595,546.1c-52.8,44.9-201.4,97.5-420.6,100C1982.5,648.2,868.7,648.1,868.7,648.1z"/>
		<path class="st3" d="M2364.4,678.9c0,0,146.4-8.3,291.6-36.8c145.2-28.5,277.9-102,320.6-138.6c42.7-36.7,61.7-80.7,61.1-127.3
			c-0.8-67.5-43.3-79.6-77.6-73.8c-37.3,6.4-49,30.9-49.8,86c0,0-22.5-17.1-11.5-81c11-63.7,68.6-72.1,87.3-72.1
			c37.7,0,104.3,8.9,117.7,115.1c14.4,113.9-42.3,153.6-87.2,194.2c-45,40.6-187.6,130.3-365.9,132.8
			C2533.3,679.2,2446.9,684.7,2364.4,678.9z"/>
		<path class="st3" d="M386.4,652.1c0,0,1138.3,32.8,1436.1,41.8c318.6,9.6,712.5-14.7,700.3-14c0,0-367.7-20.9-579.2-24.4
			C1732.1,652,386.4,652.1,386.4,652.1z"/>
		<path class="st4" d="M848.9,667.6c0,0,939.6,90.6,1130.9,102.5c140.4,8.7,497.7,8.3,527.4,14.7c29.7,6.4,162.2,14.9,186.3,92.6
			c24,77.7-1.1,134.4-28.5,159.5c0,0,76.6-20.1,64.9-157.2c-9.6-112.7-59.3-132.8-104.5-154.6c-26.1-12.6-117.8-31-212.3-17
			c-92.7,13.7-242.3,12-368.5,6.7C1587.5,695.4,848.9,667.6,848.9,667.6z"/>
		<path class="st3" d="M2132.2,659.6c0,0,344.1-19.6,429.7-34.3c85.7-14.8,165.2-46.3,191.1-61.4c19.7-11.5,40.1-32.6,38.9-48.3
			c-2-26.6-23.1-28.8-43.4-27.8c-21,1.1-35.8,12.5-34,31.4c0,0-16.5-4-8.3-28.6c8.2-24.6,48.9-31,59.1-29c10.2,1.9,45.8,2.3,51,43.2
			c5.5,43-13.6,55.6-41,72.3c-27.3,16.7-114.2,45.7-217.6,61.8C2424.6,659.6,2180.3,659.6,2132.2,659.6z"/>
		<path class="st3" d="M2414.3,692.7c0,0,322-4.8,402.7,4.1c80.7,8.9,156.5,35.2,181.5,48.7c19,10.3,39.6,24,38.8,46.4
			c-0.9,25.1-20.1,30.9-39.1,31.3c-19.6,0.4-30.7-4.4-33.3-29.5c0,0-10.2,5.7-3.7,31.1c6.3,24.5,38.4,27.2,54.1,23.8
			c9.6-2,42.6-5.6,45.4-47.6c2.9-44.1-15.6-55.6-42-70.5s-108.9-38.3-206.2-47.3C2687,671.7,2459.1,689.2,2414.3,692.7z"/>
	</g>
	<path class="st5" d="M854.5,794.4c0,0,6.5,38.7-1.4,58.2s-16.7,26.6-35.9,21.4c-19.2-5.2-27.1-33.9-95.9-74.8
		c-68.9-40.9-170.5-86.9-281-86.9s-212.2,46-281,86.9c-68.9,40.9-76.7,69.6-95.9,74.8c-19.2,5.2-28-1.9-35.9-21.4
		c-7.9-19.5-1.4-58.2-1.4-58.2c-34.9,130.7,21.1,159,47.6,182.1s93,38.2,174.2-24.2s192.5-59,192.5-59s111.3-3.3,192.5,59
		s147.7,47.3,174.2,24.2S889.5,925.1,854.5,794.4z"/>
	<path class="st6" d="M740.5,788.1C643.8,707.4,554.9,672.4,439.1,674c-115.8-1.6-204.8,33.4-301.5,114.1
		C56.3,856.1,23.5,929.8,98.3,973.1c35.7,20.7,111.8-6,167.7-46.8c55.5-40.5,80.2-47.2,173.1-47.2s117.6,6.7,173.1,47.2
		c55.9,40.8,131.9,67.5,167.7,46.8C854.7,929.8,821.9,856.1,740.5,788.1z"/>
	<g>
		<path class="st1" d="M295.4,685.8l50.7,220.6l-68.7,37.5l-76.7-108.5l49.4,119.1l-72.9,43.3l-134-127l43.6-54.2l85.1,73.9
			l-45.1-103.2l61-46.6l75,90.7l-36.4-110.2L295.4,685.8z"/>
	</g>
	<g>
		<path class="st1" d="M566.5,764.9l-85.2,0.1c0,0,2.1-40.9-34.9-40.9c0,0-34.3-6.5-34.3,37v33c0,43.4,34.7,40.7,34.7,40.7
			c32,0,35.6-21.3,35.6-44.3c1-0.9,84.1,0,84.1,0c0,60.2-19,111.8-118,111.8c-107.1,0-114.2-64.8-114.2-103.2v-57.6
			c0-65.7,38.8-91.1,103.3-91.1C538.4,650.4,566.5,688.8,566.5,764.9z"/>
	</g>
	<g>
		<path class="st1" d="M623.3,696.1l92.9,39.3c23.1,12.8,50.9,30.6,63.9,73.5c7.3,23.9,14.6,71.8-8.6,113.9
			c-25.5,46.2-74.6,57.8-119.7,38.4l-110.4-42.6L623.3,696.1z M666.3,800.3l-30.6,73.6c0,0,53.6,45.7,78.8-0.7
			C743.6,819.6,673.9,803.3,666.3,800.3z"/>
	</g>
	<g>
		<path class="st7" d="M185.7,269.3c0.2-0.6,0.3-0.8,0.4-1c2.2-8.1,4.4-16.3,6.6-24.4c2-7.6,4.1-15.2,6.1-22.7
			c0.2-0.7,0.4-0.9,1.2-0.7c2.2,0.6,4.5,1.2,6.7,1.8c12,3.2,24,6.4,36,9.6c1.7,0.5,3.4,0.9,5.2,1.3c0.1-0.1,0.1-0.2,0.2-0.3
			c-11.9-11.9-23.7-23.7-35.8-35.8c12-12,23.9-23.8,35.9-35.8c-0.5,0.1-0.8,0.2-1.1,0.2c-8.7,2.3-17.4,4.7-26.2,7
			c-6.9,1.8-13.7,3.7-20.6,5.6c-0.9,0.2-1.2,0-1.5-0.9c-1-3.9-2.1-7.8-3.1-11.7c-3.1-11.5-6.2-22.9-9.3-34.4c-0.1-0.5-0.3-1-0.4-1.5
			c-0.3,0.4-0.5,0.8-0.6,1.2c-1.5,5.7-3,11.3-4.6,17c-2.6,9.7-5.2,19.4-7.8,29.1c-0.4,1.5-0.4,1.5-1.9,1.1c-5.5-1.5-11.1-3-16.7-4.5
			c-9.7-2.6-19.4-5.2-29-7.8c-0.5-0.1-1-0.2-1.8-0.3c0.4,0.5,0.6,0.7,0.8,0.9c2.7,2.7,5.4,5.4,8.1,8.2c8.7,8.7,17.5,17.5,26.2,26.2
			c0.6,0.6,0.5,0.9,0,1.4c-1,0.9-1.9,1.9-2.8,2.8c-10.5,10.5-20.9,20.9-31.4,31.4c-0.3,0.3-0.5,0.6-0.9,1c0.6-0.1,0.9-0.1,1.2-0.2
			c7.7-2,15.4-4.1,23.1-6.2c7.8-2.1,15.5-4.2,23.3-6.3c1.6-0.4,1.6-0.4,2,1.2c0.7,2.8,1.5,5.5,2.2,8.3c2.9,10.8,5.8,21.6,8.7,32.4
			C184.4,264.7,185,266.9,185.7,269.3z"/>
	</g>
	<path class="st8" d="M779.4,811.9C637.7,693.8,529,671.9,445.2,673.7c-83.7-1.8-192.5,20.2-334.1,138.2
		c-70.1,58.4-90.3,98.8-8.8,92.4c38.9-3,112.9-37.8,164.7-71.8c51.4-33.8,90.5-75.4,178.2-73.6c87.7-1.9,126.8,39.8,178.2,73.6
		c51.8,34,125.8,68.8,164.7,71.8C869.6,910.6,849.4,870.3,779.4,811.9z"/>
	<path class="st9" d="M777.9,692.4C635,562,492,547,439.6,547C298,547,146.9,641.9,99.3,689.4C-7.6,796.4,167.8,633.3,345.2,606
		c51.2-7.9,94.4-7.9,94.4-7.9s43.3,0,94.4,7.9C711.4,633.3,889.6,794.4,777.9,692.4z"/>
	<g class="st10">
		<defs>
			<path id="SVGID_1_" class="st10" d="M440,550.6C286,550.6,13,675.2,13,860.1c0,157.4,184.9,196.8,283.3,125.9
				c56.7-40.8,99.8-78.2,143.7-78.2"/>
		</defs>
		<clipPath id="SVGID_2_">
			<use xlink:href="#SVGID_1_"  style="overflow:visible;"/>
		</clipPath>
		<g class="st11">
			<path class="st7" d="M187.4,706.6c0.2-0.6,0.3-0.8,0.4-1c2.2-8.1,4.4-16.3,6.6-24.4c2-7.6,4.1-15.2,6.1-22.7
				c0.2-0.7,0.4-0.9,1.2-0.7c2.2,0.6,4.5,1.2,6.7,1.8c12,3.2,24,6.4,36,9.6c1.7,0.5,3.4,0.9,5.2,1.3c0.1-0.1,0.1-0.2,0.2-0.3
				c-11.9-11.9-23.7-23.7-35.8-35.8c12-12,23.9-23.8,35.9-35.8c-0.5,0.1-0.8,0.2-1.1,0.2c-8.7,2.3-17.4,4.7-26.2,7
				c-6.9,1.8-13.7,3.7-20.6,5.6c-0.9,0.2-1.2,0-1.5-0.9c-1-3.9-2.1-7.8-3.1-11.7c-3.1-11.5-6.2-22.9-9.3-34.4
				c-0.1-0.5-0.3-1-0.4-1.5c-0.3,0.4-0.5,0.8-0.6,1.2c-1.5,5.7-3,11.3-4.6,17c-2.6,9.7-5.2,19.4-7.8,29.1c-0.4,1.5-0.4,1.5-1.9,1.1
				c-5.5-1.5-11.1-3-16.7-4.5c-9.7-2.6-19.4-5.2-29-7.8c-0.5-0.1-1-0.2-1.8-0.3c0.4,0.5,0.6,0.7,0.8,0.9c2.7,2.7,5.4,5.4,8.1,8.2
				c8.7,8.7,17.5,17.5,26.2,26.2c0.6,0.6,0.5,0.9,0,1.4c-1,0.9-1.9,1.9-2.8,2.8c-10.5,10.5-20.9,20.9-31.4,31.4
				c-0.3,0.3-0.5,0.6-0.9,1c0.6-0.1,0.9-0.1,1.2-0.2c7.7-2,15.4-4.1,23.1-6.2c7.8-2.1,15.5-4.2,23.3-6.3c1.6-0.4,1.6-0.4,2,1.2
				c0.7,2.8,1.5,5.5,2.2,8.3c2.9,10.8,5.8,21.6,8.7,32.4C186.1,702,186.7,704.1,187.4,706.6z"/>
		</g>
	</g>
	<g>
		<path d="M1120,733.4c-19.1-16.7-45.8-25-80.1-25h-78.9v194.1h72.3c37.3,0,65.8-8.5,85.7-25.4c19.9-16.9,29.8-41.4,29.8-73.5
			C1148.6,773.5,1139.1,750.1,1120,733.4z M1078,854.3c-9.6,11-24.4,16.5-44.4,16.5h-17.8V739.6h22c36.3,0,54.5,21.7,54.5,65.1
			C1092.3,826.8,1087.5,843.3,1078,854.3z"/>
		<path d="M1305.3,769.4c-14.1-11.7-33.4-17.6-57.9-17.6c-26.2,0-46.7,6.9-61.4,20.6c-14.7,13.7-22,32.8-22,57.2
			c0,24.1,8.1,42.7,24.3,55.8c16.2,13.1,38.4,19.7,66.5,19.7c24.1,0,44.7-3.4,62-10.2v-29.1c-18.3,7.2-36.2,10.8-53.7,10.8
			c-13.7,0-24.5-3.2-32.3-9.6c-7.8-6.4-11.9-16.2-12.3-29.4h108v-18.9C1326.5,797.5,1319.4,781.1,1305.3,769.4z M1219.3,811.9
			c0.8-11.2,3.7-19.5,8.7-24.9c5-5.4,11.3-8,19-8c8.2,0,14.7,2.8,19.4,8.4c4.7,5.6,7.2,13.8,7.5,24.6H1219.3z"/>
		<path d="M1451.3,754.6c-19.7,58.9-30,90.4-31.1,94.5c-1.1,4.2-2.1,8.7-3.1,13.7c-1,5-1.6,8.8-1.7,11.4h-0.8
			c-0.4-3.4-1.4-8.9-3.1-16.5c-1.7-7.7-3.1-13.5-4.3-17.5l-28.7-85.6h-55.7l58.7,147.9h66.6l58.9-147.9H1451.3z"/>
		<path d="M1629.4,841.8c-3.1-5-7.5-9.4-13.1-13.3c-5.7-3.9-15.5-8.6-29.5-14.2c-11.6-4.6-19.5-8.5-23.7-11.6
			c-4.2-3.1-6.4-6.6-6.4-10.6c0-3.5,1.7-6.4,5.1-8.8c3.4-2.4,8.6-3.6,15.4-3.6c10.9,0,23.6,2.6,38,7.7l17.6-25.4
			c-17.6-6.9-36.4-10.4-56.3-10.4c-22.9,0-40.9,3.7-54,11c-13.1,7.3-19.7,17.3-19.7,29.9c0,9.8,3.5,18.3,10.6,25.6
			c7.1,7.2,18.7,14,35,20.4c12.2,4.9,20.7,9,25.2,12.3c4.6,3.4,6.9,7.3,6.9,11.8c0,4.4-2.2,8-6.6,10.7c-4.4,2.7-10.7,4-19.1,4
			c-7.5,0-16.3-1.1-26.1-3.3c-9.9-2.2-18.5-5-25.9-8.4v30.7c14.5,5.8,32.9,8.6,55.1,8.6c25,0,44-4,56.8-12.1
			c12.9-8.1,19.3-19.4,19.3-33.8C1634,852.6,1632.5,846.8,1629.4,841.8z"/>
	</g>
	<g>
		<g>
			<path class="st1" d="M1229.2,438.6l-79.6,152.7l-3.3-152.7h-48.1l-79.8,152.7l-3.3-153.4c-2.5-0.2-4.9-0.3-7.3-0.4
				c-2.4-0.1-5-0.1-7.9-0.1c-10.6,0-21.3,0.8-31.9,2.5c-10.7,1.7-20.9,4-30.7,6.9c-9.8,3-19,6.5-27.6,10.5
				c-8.6,4.1-16,8.5-22.4,13.3c-6.4,4.8-11.4,9.9-15,15.2c-3.6,5.4-5.5,10.8-5.5,16.3c0,4.5,0.9,8.4,2.7,11.4
				c1.8,3.1,4.4,5.6,7.8,7.4c3.4,1.9,7.6,3.2,12.7,4.1c5.1,0.9,10.9,1.3,17.4,1.3c0-0.5-0.3-1.1-0.8-1.7c-0.6-0.7-1.1-1.6-1.8-2.7
				c-0.6-1.2-1.2-2.8-1.8-4.8c-0.6-2-0.8-4.6-0.8-7.7c0-13.9,5-25.5,14.9-34.8c9.9-9.3,23.8-16.2,41.6-20.6l6.1,170.3h54.6l72-126.9
				l4.4,126.9h54.6l105.5-185.8H1229.2z"/>
			<path class="st1" d="M1871.6,579.6c-1.5,3.2-3.2,6.1-5.1,8.8c-1.9,2.7-4.1,5.1-6.7,7s-5.3,3.5-8.4,4.6c-3.1,1.1-6.5,1.6-10.2,1.6
				c-2.2,0-4-0.3-5.5-0.9c-1.4-0.6-2.6-1.4-3.4-2.4c-0.9-1-1.5-2.2-1.9-3.5c-0.4-1.3-0.6-2.7-0.6-4.1c0-2.1,0.4-4.2,1.1-6.3
				l27.2-84.7h-54.6l-25.7,80c-0.2,0.6-0.4,1.2-0.5,1.8c-0.2,0.2-0.4,0.4-0.7,0.6c-2.5,1.9-25.6,16.9-28.7,18
				c-3.1,1.1-6.6,1.6-10.3,1.6c-5.3,0-9.2-0.7-11.8-2c-2.5-1.3-3.8-3.8-3.8-7.3c0-1.3,0.1-2.6,0.4-4c0.2-1.3,0.7-2.7,1.3-4.1
				l43.5-134.6l-56.1,5l-18.5,57.3v-1c0-3.6-2.4-6.6-7.3-9c-4.9-2.4-12.7-3.7-23.4-3.7c-11,0-21,1.4-30.2,4.1
				c-9.1,2.7-17.3,6.4-24.5,11c-7.2,4.6-13.5,9.9-18.9,15.8s-9.8,12.2-13.4,18.7c-3.6,6.5-6.2,13-8,19.5c-1.2,4.4-1.9,8.5-2.3,12.5
				c-2,3-4.8,5-6.8,7.6c-2,2.7-8.3,6.1-10.8,8c-2.5,1.9-5.2,3.4-8.3,4.5c-3.1,1.1-6.7,1.6-10.7,1.6c-5.8,0-9.8-1-11.9-2.9
				s-3.2-4.5-3.2-7.5c0-2.4,0.5-5.1,1.4-8.2c0.9-3.1,2.1-6.5,3.4-10.2c1.4-3.7,2.8-7.5,4.3-11.4c1.5-4,3-8,4.3-12
				c1.4-4,2.5-8,3.4-11.8c0.9-3.9,1.4-7.4,1.4-10.8c0-4.9-1.1-9.2-3.1-12.8c-2.1-3.6-5-6.5-8.8-8.8c-3.8-2.3-8.2-3.9-13.4-5
				c-5.2-1.1-10.8-1.6-16.8-1.6c-3,0-6.1,0.2-9.5,0.5c-3.4,0.3-7,1-10.8,1.9c-3.8,1-7.7,2.4-11.8,4.2c-4,1.8-8.1,4.2-12.1,7.3
				l4.1-12.9h-54.6l-22.3,69.2c-1.2,2.1-2.7,4.2-4.3,6.1c-2.3,2.7-25.2,18.5-28.2,20.5c-3,1.9-6.2,3.5-9.7,4.6
				c-3.5,1.1-7.1,1.6-10.8,1.6c-5.3,0-9.2-0.7-11.7-2c-2.5-1.3-3.7-3.8-3.7-7.3c0-1.3,0.1-2.6,0.3-4c0.2-1.3,0.6-2.7,1.2-4.1
				l27.2-84.7h-54.6l-25.7,80c-1,3.2-1.7,6.1-2.2,8.8c-0.5,2.7-0.7,5.2-0.7,7.5c0,5.3,1.1,9.8,3.1,13.5c2.1,3.7,5,6.8,8.6,9.2
				c3.6,2.4,7.9,4.2,12.9,5.4c4.9,1.1,10.2,1.7,15.9,1.7c3.3,0,7.1-0.2,11.4-0.6c4.3-0.4,8.7-1.2,13.4-2.3c4.7-1.1,9.5-2.8,14.5-4.9
				s9.9-4.9,14.6-8.3c2.7-1.9,11.9-8.5,20.1-14.7l-9.4,29.3h54.6l25.7-80c1.5-3.2,3.2-6.1,5.2-9c2-2.8,4.2-5.2,6.7-7.3
				c2.5-2.1,5.2-3.7,8.1-4.9c3-1.2,6.2-1.8,9.6-1.8c9.1,0,13.7,4.3,13.7,12.8c0,4-0.9,8.7-2.7,14.2c-1.8,5.5-3.7,11.2-5.8,17.2
				c-2.1,5.9-4,11.7-5.8,17.3c-1.8,5.6-2.7,10.6-2.7,14.8c0,3.6,0.8,7,2.3,10.4c1.5,3.4,4,6.4,7.5,9c3.5,2.6,8,4.7,13.7,6.3
				c5.7,1.6,12.7,2.4,21.1,2.4c5.1,0,10.6-0.5,16.6-1.5c6-1,12.1-3.1,18.3-6.3c6.2-3.2,12.4-7.9,18.5-13.9c2.3-2.3,4.6-5,6.8-7.9
				c0.7,3,1.7,5.8,3.1,8.2c2.8,5.1,6.6,9.2,11.3,12.4c4.7,3.2,10.1,5.4,16.1,6.8c6,1.4,12.3,2.1,18.9,2.1c6.7,0,12.8-0.7,18.5-2
				c5.7-1.3,10.8-3.1,15.5-5.2c4.6-2.2,8.8-4.6,12.4-7.3c3.6-2.7,6.9-5.5,9.7-8.3c1.5,7.1,5.4,12.4,11.8,16
				c6.4,3.6,14.9,5.4,25.4,5.4c3.3,0,7-0.2,11.1-0.5c4.1-0.3,8.3-1,12.8-2.1c4.4-1.1,9-2.6,13.7-4.6c3.8-1.6,20.5-12.3,29.2-18.1
				c0.3,4,1.3,7.4,3,10.4c2.1,3.7,5,6.8,8.6,9.2c3.6,2.4,7.9,4.2,12.9,5.4c4.9,1.1,10.2,1.7,15.9,1.7c3.3,0,6.8-0.2,10.5-0.5
				c3.7-0.4,7.5-1.1,11.5-2.1c3.9-1,8-2.5,12-4.3c4.1-1.9,8.1-4.3,12.2-7.4l-3.9,11c-9.1,1.8-17.7,3.6-25.6,5.5
				c-8,1.9-14.9,4.2-20.8,7c-5.9,2.8-10.6,6.1-14,10.1c-3.4,4-5.1,8.9-5.1,14.7c0,4.1,1.3,7.7,3.8,11c2.5,3.3,5.9,6.1,10,8.5
				c4.1,2.4,8.9,4.2,14.3,5.5c5.4,1.3,10.9,1.9,16.6,1.9c6.2,0,12.7-0.5,19.7-1.6c7-1.1,13.6-3.1,20-6.2c6.4-3.1,12.1-7.4,17.4-12.9
				c5.2-5.5,9.2-12.7,11.9-21.7l46.3-144.6h-55L1871.6,579.6z M1670.7,579.6v1.3c-1.2,3.5-3.1,6.5-5.5,9.1c-2.4,2.6-5.1,4.8-8,6.5
				c-2.9,1.7-5.9,3-9.1,3.8c-3.1,0.9-6,1.3-8.6,1.3c-1.7,0-3.7-0.1-5.9-0.4c-2.2-0.2-4.3-1-6.2-2.3c-1.9-1.3-3.5-3.2-4.9-5.8
				c-1.4-2.6-2-6.3-2-11.1c0-3.9,0.6-8.3,1.7-13.2c1.1-4.9,2.7-9.9,4.9-15c2.2-5.1,4.8-10,7.9-14.8c3.1-4.8,6.6-9.1,10.5-12.8
				c3.9-3.8,8.3-6.8,13-9.1c4.7-2.3,9.8-3.4,15.1-3.4c3,0,5.4,0.3,7.3,0.9c1.9,0.6,3.4,1.4,4.5,2.3c1.1,0.9,1.9,1.9,2.5,2.9
				c0.6,1,1,1.8,1.2,2.6L1670.7,579.6z M1850.6,645c-1.2,3.7-2.7,6.9-4.4,9.4c-1.7,2.5-3.6,4.5-5.6,6c-2,1.5-4.1,2.5-6.3,3.2
				c-2.2,0.6-4.2,0.9-6,0.9c-2.2,0-4.3-0.3-6.1-0.8c-1.9-0.5-3.5-1.2-4.8-1.9c-1.4-0.8-2.4-1.6-3.1-2.6c-0.7-1-1.1-1.9-1.1-2.9
				c0-3.3,1.1-6.3,3.2-9c2.2-2.6,5.1-5,8.9-7.1c3.8-2.1,8.2-3.9,13.4-5.5c5.2-1.6,10.7-3.1,16.7-4.4L1850.6,645z"/>
			<path class="st1" d="M2658.2,499.7l-25.7,80c-1.5,3.2-3.2,6.1-5.1,8.8c-1.9,2.7-4.1,5.1-6.7,7s-5.3,3.5-8.4,4.6
				c-3.1,1.1-6.5,1.6-10.2,1.6c-2.2,0-4-0.3-5.5-0.9c-1.4-0.6-2.6-1.4-3.4-2.4c-0.9-1-1.5-2.2-1.8-3.5c-0.4-1.3-0.6-2.7-0.6-4.1
				c0-2.1,0.4-4.2,1.1-6.3l27.2-84.7h-54.6l-19.6,60.8c-3.4,3.3-7.4,6.9-9.1,8.1c-3,1.9-39.9,30.4-43.4,31.5
				c-3.5,1.1-7.1,1.6-10.8,1.6c-5.3,0-9.2-0.7-11.7-2c-2.5-1.3-3.7-3.8-3.7-7.3c0-1.3,0.1-2.6,0.3-4c0.2-1.3,0.6-2.7,1.2-4.1
				l24.2-74.7h22.8l3-10H2495l13-39.4l-56.1,5l-11.5,34.4H2428l-3.2,10h12.6l-22.8,70c-0.4,1.3-0.8,2.5-1.1,3.8
				c-13.3,7.8-34.4,20-37.1,20.8c-3.9,1.2-7.8,1.8-11.9,1.8c-5.9,0-10.1-0.7-12.8-2.2c-2.7-1.5-4.1-4.1-4.1-7.8
				c0-1.4,0.1-2.8,0.3-4.3c0.2-1.4,0.7-2.9,1.3-4.4l30-91.6h-60.1l-21.4,65.3c-16,9.9-69.5,32.8-81.1,36.8
				c-12.7,4.4-26.5,6.6-41.5,6.6c-9.3,0-16.8-0.9-22.7-2.9c-5.9-1.9-10.5-4.6-13.9-8c-3.4-3.4-5.7-7.5-7-12.2
				c-1.3-4.8-1.9-10-1.9-15.8c0-8.4,1-17.2,3-26.3c2-9.1,4.7-17.9,8.1-26.5c3.5-8.6,7.6-16.8,12.5-24.5c4.9-7.7,10.2-14.5,16.1-20.3
				c5.9-5.8,12.1-10.4,18.7-13.8c6.6-3.4,13.4-5.1,20.5-5.1c4.2,0,7.8,0.4,10.7,1.3c3,0.9,5.4,2,7.2,3.4c1.9,1.4,3.2,3,4,4.9
				c0.8,1.9,1.2,3.8,1.2,5.7c0,2.4-0.5,4.9-1.5,7.3c-1,2.4-2.3,4.7-3.9,6.8c-1.6,2.1-3.5,3.9-5.6,5.5c-2.1,1.6-4.3,2.7-6.5,3.5
				c3.6,2.8,7.3,4.6,11.2,5.4c3.9,0.7,7.3,1.1,10.3,1.1c4.8,0,8.9-0.6,12.3-1.7c3.4-1.1,6.2-2.7,8.3-4.8c2.2-2.1,3.7-4.5,4.6-7.3
				c0.9-2.8,1.4-5.9,1.4-9.2c0-5.9-1.6-11-4.9-15.2c-3.3-4.2-7.8-7.7-13.5-10.4c-5.7-2.7-12.5-4.6-20.2-5.9
				c-7.7-1.3-15.9-1.9-24.7-1.9c-12.5,0-23.9,1.2-34.2,3.7c-10.4,2.5-19.8,5.9-28.3,10.2c-8.5,4.3-16.2,9.4-22.9,15.2
				c-6.8,5.8-12.8,12.1-18,18.8c-5.2,6.7-9.6,13.7-13.2,20.9c-3.6,7.2-6.6,14.4-9,21.5c-2.3,7.1-4,14.1-5.1,20.8
				c-1.1,6.7-1.6,12.9-1.6,18.6c0,11.2,1.7,20.7,5.1,28.5c3.4,7.8,8.5,14.1,15.4,19c6.8,4.9,15.5,8.4,25.8,10.6
				c10.4,2.2,22.6,3.3,36.6,3.3c8.8,0,18.3-0.9,28.8-2.6c10.4-1.7,20.7-4.4,30.7-8.1c10.1-3.7,19.4-8.5,28-14.4
				c6.1-4.1,37.2-19.3,56.8-30.8l-3.1,9.6c-1.1,3.4-1.9,6.6-2.4,9.5c-0.5,2.9-0.8,5.6-0.8,8.1c0,5.7,1.2,10.6,3.5,14.6
				c2.3,4,5.5,7.4,9.5,10c4,2.6,8.7,4.6,14.2,5.8c5.4,1.2,11.3,1.8,17.5,1.8c3.7,0,7.8-0.2,12.5-0.7c4.7-0.4,9.6-1.3,14.8-2.5
				c5.2-1.2,10.5-3,16-5.3c5.5-2.3,10.9-5.3,16.1-9c2.2-1.5,10.9-7.1,20.5-13.5c0.5,3.1,1.4,5.9,2.8,8.3c2.1,3.7,5,6.8,8.6,9.2
				c3.6,2.4,7.9,4.2,12.9,5.4c4.9,1.1,10.2,1.7,15.9,1.7c3.3,0,7.1-0.2,11.4-0.6c4.3-0.4,8.7-1.2,13.4-2.3c4.7-1.1,9.5-2.8,14.5-4.9
				s23.3-18.3,28.1-21.8c2.2-1.6,10.2-7.7,18.5-14.2c-0.6,2.3-1.2,4.4-1.5,6.5c-0.5,2.7-0.7,5.2-0.7,7.5c0,5.3,1.1,9.8,3.1,13.5
				c2.1,3.7,5,6.8,8.6,9.2c3.6,2.4,7.9,4.2,12.9,5.4c4.9,1.1,10.2,1.7,15.9,1.7c3.3,0,6.8-0.2,10.5-0.5c3.7-0.4,7.5-1.1,11.5-2.1
				c3.9-1,8-2.5,12-4.3c4.1-1.9,8.1-4.3,12.2-7.4l-3.9,11c-9.1,1.8-17.7,3.6-25.6,5.5c-8,1.9-14.9,4.2-20.8,7
				c-5.9,2.8-10.6,6.1-14,10.1c-3.4,4-5.1,8.9-5.1,14.7c0,4.1,1.3,7.7,3.8,11c2.5,3.3,5.9,6.1,10,8.5c4.1,2.4,8.9,4.2,14.3,5.5
				c5.4,1.3,10.9,1.9,16.6,1.9c6.2,0,12.7-0.5,19.7-1.6c7-1.1,13.6-3.1,20-6.2c6.4-3.1,12.2-7.4,17.4-12.9
				c5.2-5.5,9.2-12.7,11.9-21.7l46.3-144.6H2658.2z M2611.6,645c-1.2,3.7-2.7,6.9-4.4,9.4c-1.7,2.5-3.6,4.5-5.6,6
				c-2,1.5-4.1,2.5-6.3,3.2c-2.2,0.6-4.2,0.9-6,0.9c-2.2,0-4.3-0.3-6.1-0.8c-1.8-0.5-3.5-1.2-4.8-1.9c-1.4-0.8-2.4-1.6-3.1-2.6
				c-0.7-1-1.1-1.9-1.1-2.9c0-3.3,1.1-6.3,3.2-9c2.2-2.6,5.1-5,8.9-7.1c3.8-2.1,8.2-3.9,13.4-5.5c5.2-1.6,10.7-3.1,16.7-4.4
				L2611.6,645z"/>
		</g>
		<g>
			<path class="st7" d="M2351.3,488.2c0.2-0.5,0.3-0.7,0.3-0.9c2-7.3,3.9-14.6,5.9-22c1.8-6.8,3.6-13.6,5.4-20.4
				c0.2-0.6,0.4-0.8,1-0.6c2,0.6,4,1.1,6,1.6c10.8,2.9,21.5,5.8,32.3,8.7c1.5,0.4,3.1,0.8,4.6,1.2c0-0.1,0.1-0.2,0.1-0.2
				c-10.7-10.7-21.3-21.3-32.1-32.2c10.8-10.8,21.5-21.4,32.3-32.2c-0.5,0.1-0.7,0.1-1,0.2c-7.8,2.1-15.7,4.2-23.5,6.3
				c-6.2,1.7-12.3,3.3-18.5,5c-0.8,0.2-1.1,0-1.3-0.8c-0.9-3.5-1.9-7-2.8-10.6c-2.8-10.3-5.5-20.6-8.3-30.9
				c-0.1-0.5-0.3-0.9-0.4-1.4c-0.3,0.4-0.5,0.7-0.5,1.1c-1.4,5.1-2.7,10.2-4.1,15.2c-2.3,8.7-4.7,17.4-7,26.2
				c-0.4,1.3-0.4,1.3-1.7,1c-5-1.3-10-2.7-15-4c-8.7-2.3-17.4-4.7-26.1-7c-0.4-0.1-0.9-0.2-1.6-0.3c0.4,0.4,0.5,0.6,0.7,0.8
				c2.4,2.4,4.8,4.9,7.3,7.3c7.8,7.8,15.7,15.7,23.5,23.5c0.5,0.5,0.4,0.8,0,1.3c-0.9,0.8-1.7,1.7-2.5,2.5
				c-9.4,9.4-18.8,18.8-28.2,28.2c-0.2,0.2-0.5,0.5-0.9,0.9c0.5-0.1,0.8-0.1,1-0.2c6.9-1.8,13.8-3.7,20.7-5.5
				c7-1.9,13.9-3.8,20.9-5.6c1.4-0.4,1.4-0.4,1.8,1c0.7,2.5,1.3,5,2,7.5c2.6,9.7,5.2,19.4,7.8,29.1
				C2350.1,484,2350.7,486,2351.3,488.2z"/>
		</g>
		<g>
			<path class="st7" d="M1308.6,488.2c0.2-0.5,0.3-0.7,0.3-0.9c2-7.3,3.9-14.6,5.9-22c1.8-6.8,3.6-13.6,5.4-20.4
				c0.2-0.6,0.4-0.8,1-0.6c2,0.6,4,1.1,6,1.6c10.8,2.9,21.5,5.8,32.3,8.7c1.5,0.4,3.1,0.8,4.6,1.2c0-0.1,0.1-0.2,0.1-0.2
				c-10.7-10.7-21.3-21.3-32.1-32.2c10.8-10.8,21.5-21.4,32.3-32.2c-0.5,0.1-0.7,0.1-1,0.2c-7.8,2.1-15.7,4.2-23.5,6.3
				c-6.2,1.7-12.3,3.3-18.5,5c-0.8,0.2-1.1,0-1.3-0.8c-0.9-3.5-1.9-7-2.8-10.6c-2.8-10.3-5.5-20.6-8.3-30.9
				c-0.1-0.5-0.3-0.9-0.4-1.4c-0.3,0.4-0.5,0.7-0.5,1.1c-1.4,5.1-2.7,10.2-4.1,15.2c-2.3,8.7-4.7,17.4-7,26.2
				c-0.4,1.3-0.4,1.3-1.7,1c-5-1.3-10-2.7-15-4c-8.7-2.3-17.4-4.7-26.1-7c-0.4-0.1-0.9-0.2-1.6-0.3c0.4,0.4,0.5,0.6,0.7,0.8
				c2.4,2.4,4.8,4.9,7.3,7.3c7.8,7.8,15.7,15.7,23.5,23.5c0.5,0.5,0.4,0.8,0,1.3c-0.9,0.8-1.7,1.7-2.5,2.5
				c-9.4,9.4-18.8,18.8-28.2,28.2c-0.2,0.2-0.5,0.5-0.9,0.9c0.5-0.1,0.8-0.1,1-0.2c6.9-1.8,13.8-3.7,20.7-5.5
				c7-1.9,13.9-3.8,20.9-5.6c1.4-0.4,1.4-0.4,1.8,1c0.7,2.5,1.3,5,2,7.5c2.6,9.7,5.2,19.4,7.8,29.1
				C1307.5,484,1308,486,1308.6,488.2z"/>
		</g>
	</g>
</g>
</svg>
